<svg id="Layer_1" xmlns="http://www.w3.org/2000/svg" viewBox="0 0 629.68 212.01"><defs><style>.cls-1{font-size:200px;fill:#333;font-family:GT Pressura Mono Trial;}.cls-2{fill:gray;}.cls-3{fill:#b3b3b3;}.cls-4{fill:#4d4d4d;}.cls-5{fill:#231f20;}.cls-6{fill:#1a1a1a;}</style></defs><title>logo-sortx</title><text class="cls-1" transform="translate(0 170.02)">SORT</text><path d="M518.15,164.28h-10a2.72,2.72,0,0,1-2.37-1.33,2.86,2.86,0,0,1-.07-2.88l25.87-50.55a1.92,1.92,0,0,0,.15-2.14L508,62.58a2.73,2.73,0,0,1,.07-2.81,3,3,0,0,1,2.37-1.48h9.68q1.85,0,2.88,2.29L540.1,93.48q0.59,1.48,1.18,0l17.15-32.89q1-2.29,2.88-2.29H571a2.55,2.55,0,0,1,2.29,1.33,3.12,3.12,0,0,1,.15,3l-23.8,44.79a1.92,1.92,0,0,0,.15,2.14l26,50.55a2.86,2.86,0,0,1-.07,2.88,2.55,2.55,0,0,1-2.29,1.33H563.08a3.28,3.28,0,0,1-3-2.29l-18.77-37.55q-0.59-1.48-1.18,0L521.33,162A3.37,3.37,0,0,1,518.15,164.28Z" transform="translate(3 -5.28)"/><path d="M464.3,13.87H497a0,0,0,0,1,0,0V27.11a0,0,0,0,1,0,0H457.85a0,0,0,0,1,0,0V20.32A6.45,6.45,0,0,1,464.3,13.87Z"/><path d="M441.93,32.1H475a6,6,0,0,1,6,6v7.16a0,0,0,0,1,0,0H441.93a0,0,0,0,1,0,0V32.14a0,0,0,0,1,0,0Z" transform="translate(425.74 494.91) rotate(-90)"/><path class="cls-2" d="M464.3,13.87H497a0,0,0,0,1,0,0V27.11a0,0,0,0,1,0,0H457.85a0,0,0,0,1,0,0V20.32A6.45,6.45,0,0,1,464.3,13.87Z"/><path class="cls-2" d="M441.93,32.1H475a6,6,0,0,1,6,6v7.16a0,0,0,0,1,0,0H441.93a0,0,0,0,1,0,0V32.14a0,0,0,0,1,0,0Z" transform="translate(425.74 494.91) rotate(-90)"/><path d="M447.93,177.23H481a0,0,0,0,1,0,0v13.24a0,0,0,0,1,0,0H441.89a0,0,0,0,1,0,0v-7.2A6,6,0,0,1,447.93,177.23Z" transform="translate(280.61 640.04) rotate(-90)"/><path d="M454.85,190.18H488a6,6,0,0,1,6,6v7.22a0,0,0,0,1,0,0H454.85a0,0,0,0,1,0,0V190.18A0,0,0,0,1,454.85,190.18Z" transform="translate(951.84 388.33) rotate(-180)"/><path class="cls-3" d="M447.93,177.23H481a0,0,0,0,1,0,0v13.24a0,0,0,0,1,0,0H441.89a0,0,0,0,1,0,0v-7.2A6,6,0,0,1,447.93,177.23Z" transform="translate(280.61 640.04) rotate(-90)"/><path class="cls-3" d="M454.85,190.18H488a6,6,0,0,1,6,6v7.22a0,0,0,0,1,0,0H454.85a0,0,0,0,1,0,0V190.18A0,0,0,0,1,454.85,190.18Z" transform="translate(951.84 388.33) rotate(-180)"/><path d="M606.52,32.1H639.6a0,0,0,0,1,0,0V45.34a0,0,0,0,1,0,0H600.45a0,0,0,0,1,0,0V38.17A6.07,6.07,0,0,1,606.52,32.1Z" transform="translate(661.75 -586.58) rotate(90)"/><path d="M590.5,13.87h32.85a6.3,6.3,0,0,1,6.3,6.3v6.94a0,0,0,0,1,0,0H590.5a0,0,0,0,1,0,0V13.87A0,0,0,0,1,590.5,13.87Z"/><path class="cls-4" d="M606.52,32.1H639.6a0,0,0,0,1,0,0V45.34a0,0,0,0,1,0,0H600.45a0,0,0,0,1,0,0V38.17A6.07,6.07,0,0,1,606.52,32.1Z" transform="translate(661.75 -586.58) rotate(90)"/><path class="cls-4" d="M590.5,13.87h32.85a6.3,6.3,0,0,1,6.3,6.3v6.94a0,0,0,0,1,0,0H590.5a0,0,0,0,1,0,0V13.87A0,0,0,0,1,590.5,13.87Z"/><path class="cls-5" d="M593.57,190.18h33.11a0,0,0,0,1,0,0v13.24a0,0,0,0,1,0,0H587.54a0,0,0,0,1,0,0v-7.2A6,6,0,0,1,593.57,190.18Z" transform="translate(1217.22 388.33) rotate(180)"/><path class="cls-5" d="M600.49,177.23h33.06a6.09,6.09,0,0,1,6.09,6.09v7.15a0,0,0,0,1,0,0H600.49a0,0,0,0,1,0,0V177.23A0,0,0,0,1,600.49,177.23Z" transform="translate(806.91 -441.49) rotate(90)"/><path class="cls-6" d="M593.57,190.18h33.11a0,0,0,0,1,0,0v13.24a0,0,0,0,1,0,0H587.54a0,0,0,0,1,0,0v-7.2A6,6,0,0,1,593.57,190.18Z" transform="translate(1217.22 388.33) rotate(180)"/><path class="cls-6" d="M600.49,177.23h33.06a6.09,6.09,0,0,1,6.09,6.09v7.15a0,0,0,0,1,0,0H600.49a0,0,0,0,1,0,0V177.23A0,0,0,0,1,600.49,177.23Z" transform="translate(806.91 -441.49) rotate(90)"/></svg>
