<svg id="Layer_1" xmlns="http://www.w3.org/2000/svg" viewBox="0 0 750.85 239.89"><defs><style>.cls-1{fill:gray;}.cls-2{fill:#4d4d4d;}.cls-3{fill:#b3b3b3;}.cls-4{fill:#231f20;}.cls-5{fill:#1a1a1a;}.cls-6{font-size:199.32px;}.cls-6,.cls-7{font-family:Circular Std;font-weight:700;}.cls-7{font-size:200px;}.cls-8{letter-spacing:-3px;}.cls-9{letter-spacing:4px;}</style></defs><title>logo-sortx2</title><path d="M537.37,0H582.1a0,0,0,0,1,0,0V17.31a0,0,0,0,1,0,0H530.92a0,0,0,0,1,0,0V6.45A6.45,6.45,0,0,1,537.37,0Z"/><path d="M523.36,84h49.11a2,2,0,0,1,2,2v15.24a0,0,0,0,1,0,0H523.36a0,0,0,0,1,0,0V84A0,0,0,0,1,523.36,84Z" transform="translate(446.93 574.5) rotate(-90)"/><path class="cls-1" d="M537.37,0H582.1a0,0,0,0,1,0,0V17.31a0,0,0,0,1,0,0H530.92a0,0,0,0,1,0,0V6.45A6.45,6.45,0,0,1,537.37,0Z"/><path class="cls-1" d="M523.36,84h49.11a2,2,0,0,1,2,2v15.24a0,0,0,0,1,0,0H523.36a0,0,0,0,1,0,0V84A0,0,0,0,1,523.36,84Z" transform="translate(446.93 574.5) rotate(-90)"/><path d="M732,84h45.11a0,0,0,0,1,0,0V101.3a0,0,0,0,1,0,0H725.94a0,0,0,0,1,0,0V90.05A6.07,6.07,0,0,1,732,84Z" transform="translate(834.84 -725.94) rotate(90)"/><path d="M699.67,0h49.18a2,2,0,0,1,2,2V17.31a0,0,0,0,1,0,0H699.67a0,0,0,0,1,0,0V0A0,0,0,0,1,699.67,0Z"/><path class="cls-2" d="M732,84h45.11a0,0,0,0,1,0,0V101.3a0,0,0,0,1,0,0H725.94a0,0,0,0,1,0,0V90.05A6.07,6.07,0,0,1,732,84Z" transform="translate(834.84 -725.94) rotate(90)"/><path class="cls-2" d="M699.67,0h49.18a2,2,0,0,1,2,2V17.31a0,0,0,0,1,0,0H699.67a0,0,0,0,1,0,0V0A0,0,0,0,1,699.67,0Z"/><path d="M529.35,269.9H574.5a0,0,0,0,1,0,0v17.31a0,0,0,0,1,0,0H523.31a0,0,0,0,1,0,0V275.94A6,6,0,0,1,529.35,269.9Z" transform="translate(261.02 760.41) rotate(-90)"/><path d="M540.25,286.83h49.17a2,2,0,0,1,2,2v15.3a0,0,0,0,1,0,0H540.25a0,0,0,0,1,0,0V286.83A0,0,0,0,1,540.25,286.83Z" transform="translate(1122.35 523.93) rotate(-180)"/><path class="cls-3" d="M529.35,269.9H574.5a0,0,0,0,1,0,0v17.31a0,0,0,0,1,0,0H523.31a0,0,0,0,1,0,0V275.94A6,6,0,0,1,529.35,269.9Z" transform="translate(261.02 760.41) rotate(-90)"/><path class="cls-3" d="M540.25,286.83h49.17a2,2,0,0,1,2,2v15.3a0,0,0,0,1,0,0H540.25a0,0,0,0,1,0,0V286.83A0,0,0,0,1,540.25,286.83Z" transform="translate(1122.35 523.93) rotate(-180)"/><path class="cls-4" d="M715,286.83h45.14a0,0,0,0,1,0,0v17.31a0,0,0,0,1,0,0H709a0,0,0,0,1,0,0V292.87A6,6,0,0,1,715,286.83Z" transform="translate(1459.86 523.93) rotate(180)"/><path class="cls-4" d="M725.94,269.9H775.1a2,2,0,0,1,2,2v15.28a0,0,0,0,1,0,0H725.94a0,0,0,0,1,0,0V269.9a0,0,0,0,1,0,0Z" transform="translate(1020.75 -540.03) rotate(90)"/><path class="cls-5" d="M715,286.83h45.14a0,0,0,0,1,0,0v17.31a0,0,0,0,1,0,0H709a0,0,0,0,1,0,0V292.87A6,6,0,0,1,715,286.83Z" transform="translate(1459.86 523.93) rotate(180)"/><path class="cls-5" d="M725.94,269.9H775.1a2,2,0,0,1,2,2v15.28a0,0,0,0,1,0,0H725.94a0,0,0,0,1,0,0V269.9a0,0,0,0,1,0,0Z" transform="translate(1020.75 -540.03) rotate(90)"/><text class="cls-6" transform="translate(574.21 189.49)">X</text><text class="cls-7" transform="translate(0 189.49)"><tspan class="cls-8">S</tspan><tspan x="117.8" y="0">no</tspan><tspan class="cls-9" x="351.4" y="0">r</tspan><tspan x="433.99" y="0">t</tspan></text></svg>
