<svg id="Layer_1" xmlns="http://www.w3.org/2000/svg" viewBox="0 0 639.85 239.89"><defs><style>.cls-1{fill:gray;}.cls-2{fill:#4d4d4d;}.cls-3{fill:#b3b3b3;}.cls-4{fill:#231f20;}.cls-5{fill:#1a1a1a;}.cls-6{font-size:199.32px;}.cls-6,.cls-7{font-family:Circular;font-weight:700;}.cls-7{font-size:200px;}.cls-8{letter-spacing:-1px;}</style></defs><title>logo-snortx</title><path d="M426.37,0H471.1a0,0,0,0,1,0,0V17.31a0,0,0,0,1,0,0H419.92a0,0,0,0,1,0,0V6.45A6.45,6.45,0,0,1,426.37,0Z"/><path d="M521.36,84h49.11a2,2,0,0,1,2,2v15.24a0,0,0,0,1,0,0H521.36a0,0,0,0,1,0,0V84A0,0,0,0,1,521.36,84Z" transform="translate(335.93 572.5) rotate(-90)"/><path class="cls-1" d="M426.37,0H471.1a0,0,0,0,1,0,0V17.31a0,0,0,0,1,0,0H419.92a0,0,0,0,1,0,0V6.45A6.45,6.45,0,0,1,426.37,0Z"/><path class="cls-1" d="M521.36,84h49.11a2,2,0,0,1,2,2v15.24a0,0,0,0,1,0,0H521.36a0,0,0,0,1,0,0V84A0,0,0,0,1,521.36,84Z" transform="translate(335.93 572.5) rotate(-90)"/><path d="M730,84h45.11a0,0,0,0,1,0,0V101.3a0,0,0,0,1,0,0H723.94a0,0,0,0,1,0,0V90.05A6.07,6.07,0,0,1,730,84Z" transform="translate(723.84 -723.94) rotate(90)"/><path d="M588.67,0h49.18a2,2,0,0,1,2,2V17.31a0,0,0,0,1,0,0H588.67a0,0,0,0,1,0,0V0A0,0,0,0,1,588.67,0Z"/><path class="cls-2" d="M730,84h45.11a0,0,0,0,1,0,0V101.3a0,0,0,0,1,0,0H723.94a0,0,0,0,1,0,0V90.05A6.07,6.07,0,0,1,730,84Z" transform="translate(723.84 -723.94) rotate(90)"/><path class="cls-2" d="M588.67,0h49.18a2,2,0,0,1,2,2V17.31a0,0,0,0,1,0,0H588.67a0,0,0,0,1,0,0V0A0,0,0,0,1,588.67,0Z"/><path d="M527.35,269.9H572.5a0,0,0,0,1,0,0v17.31a0,0,0,0,1,0,0H521.31a0,0,0,0,1,0,0V275.94A6,6,0,0,1,527.35,269.9Z" transform="translate(150.02 758.41) rotate(-90)"/><path d="M538.25,286.83h49.17a2,2,0,0,1,2,2v15.3a0,0,0,0,1,0,0H538.25a0,0,0,0,1,0,0V286.83A0,0,0,0,1,538.25,286.83Z" transform="translate(1009.35 523.93) rotate(-180)"/><path class="cls-3" d="M527.35,269.9H572.5a0,0,0,0,1,0,0v17.31a0,0,0,0,1,0,0H521.31a0,0,0,0,1,0,0V275.94A6,6,0,0,1,527.35,269.9Z" transform="translate(150.02 758.41) rotate(-90)"/><path class="cls-3" d="M538.25,286.83h49.17a2,2,0,0,1,2,2v15.3a0,0,0,0,1,0,0H538.25a0,0,0,0,1,0,0V286.83A0,0,0,0,1,538.25,286.83Z" transform="translate(1009.35 523.93) rotate(-180)"/><path class="cls-4" d="M713,286.83h45.14a0,0,0,0,1,0,0v17.31a0,0,0,0,1,0,0H707a0,0,0,0,1,0,0V292.87A6,6,0,0,1,713,286.83Z" transform="translate(1346.86 523.93) rotate(180)"/><path class="cls-4" d="M723.94,269.9H773.1a2,2,0,0,1,2,2v15.28a0,0,0,0,1,0,0H723.94a0,0,0,0,1,0,0V269.9A0,0,0,0,1,723.94,269.9Z" transform="translate(909.75 -538.03) rotate(90)"/><path class="cls-5" d="M713,286.83h45.14a0,0,0,0,1,0,0v17.31a0,0,0,0,1,0,0H707a0,0,0,0,1,0,0V292.87A6,6,0,0,1,713,286.83Z" transform="translate(1346.86 523.93) rotate(180)"/><path class="cls-5" d="M723.94,269.9H773.1a2,2,0,0,1,2,2v15.28a0,0,0,0,1,0,0H723.94a0,0,0,0,1,0,0V269.9A0,0,0,0,1,723.94,269.9Z" transform="translate(909.75 -538.03) rotate(90)"/><text class="cls-6" transform="translate(463.21 189.49)">X</text><text class="cls-7" transform="translate(0 189.49)">D<tspan class="cls-8" x="145.4" y="0">e</tspan><tspan x="254" y="0">v</tspan></text></svg>
